<svg width="174" height="195" viewBox="0 0 174 195" fill="none" xmlns="http://www.w3.org/2000/svg">
<path fill-rule="evenodd" clip-rule="evenodd" d="M86.9617 4.17616L7.19556 49.0078V140.832L86.9617 187.747L166.728 142.915V51.0912L86.9617 4.17616Z" stroke="#64FFDA" stroke-width="13.32" stroke-linecap="round" stroke-linejoin="round"/>
<path d="M63.04 126.8C60 126.8 57.1733 126.187 54.56 124.96C51.9467 123.68 49.8133 121.92 48.16 119.68C47.52 118.72 47.2 117.787 47.2 116.88C47.2 115.6 47.7067 114.507 48.72 113.6C49.7333 112.64 50.7733 112.16 51.84 112.16C53.2267 112.16 54.72 112.96 56.32 114.56C57.3333 115.52 58.3733 116.213 59.44 116.64C60.5067 117.013 61.7067 117.2 63.04 117.2C64.5867 117.2 66.0533 116.8 67.44 116C68.88 115.2 70.0267 114.133 70.88 112.8C71.7333 111.413 72.16 109.973 72.16 108.48V74.88C72.16 73.4933 72.6667 72.3467 73.68 71.44C74.6933 70.48 75.8667 70 77.2 70C78.6933 70 79.8933 70.4533 80.8 71.36C81.7067 72.2667 82.16 73.44 82.16 74.88V108.48C82.16 111.68 81.3067 114.693 79.6 117.52C77.8933 120.347 75.5733 122.613 72.64 124.32C69.7067 125.973 66.5067 126.8 63.04 126.8ZM111.981 82.4C116.514 82.4 120.167 83.12 122.941 84.56C125.714 85.9467 127.101 87.8133 127.101 90.16C127.101 91.3333 126.754 92.3733 126.061 93.28C125.367 94.1333 124.461 94.56 123.341 94.56C122.487 94.56 121.794 94.4533 121.261 94.24C120.727 93.9733 120.194 93.6533 119.661 93.28C119.181 92.8533 118.701 92.5067 118.221 92.24C117.687 91.9733 116.887 91.7333 115.821 91.52C114.807 91.3067 113.981 91.2 113.341 91.2C109.341 91.2 106.194 92.4533 103.901 94.96C101.661 97.4133 100.541 100.64 100.541 104.64C100.541 108.48 101.687 111.68 103.981 114.24C106.274 116.747 109.207 118 112.781 118C115.394 118 117.341 117.68 118.621 117.04C118.941 116.88 119.367 116.613 119.901 116.24C120.487 115.813 121.021 115.493 121.501 115.28C121.981 115.067 122.567 114.96 123.261 114.96C124.594 114.96 125.634 115.387 126.381 116.24C127.181 117.093 127.581 118.187 127.581 119.52C127.581 120.8 126.834 122 125.341 123.12C123.847 124.24 121.874 125.147 119.421 125.84C116.967 126.48 114.354 126.8 111.581 126.8C107.474 126.8 103.847 125.84 100.701 123.92C97.6073 122 95.2073 119.36 93.5006 116C91.794 112.587 90.9406 108.8 90.9406 104.64C90.9406 100.32 91.8206 96.48 93.5806 93.12C95.394 89.76 97.9006 87.1467 101.101 85.28C104.301 83.36 107.927 82.4 111.981 82.4Z" fill="#64FFDA"/>
</svg>
